<?xml version="1.0" encoding="utf-8"?>
<!-- Generator: Adobe Illustrator 21.1.0, SVG Export Plug-In . SVG Version: 6.00 Build 0)  -->
<svg version="1.1" id="Capa_1" xmlns="http://www.w3.org/2000/svg" xmlns:xlink="http://www.w3.org/1999/xlink" x="0px" y="0px"
	 viewBox="0 0 36.6 35.8" style="enable-background:new 0 0 36.6 35.8;" xml:space="preserve">
<style type="text/css">
	.st0{fill:#FFFFFF;}
	.st1{fill:#CA0079;}
</style>
<g>
	<g id="_x35_1_80_">
		<g>
			<path class="st0" d="M10.6,10.8c5.2,0,10.3,0,15.5,0c1.3,0,1.3-1.9,0-1.9c-5.2,0-10.3,0-15.5,0C9.3,8.9,9.3,10.8,10.6,10.8z"/>
			<path class="st0" d="M26.1,13.5c-5.2,0-10.3,0-15.5,0c-1.3,0-1.3,1.9,0,1.9c5.2,0,10.3,0,15.5,0C27.4,15.4,27.4,13.5,26.1,13.5z"
				/>
			<path class="st0" d="M26.1,17.7c-5.2,0-10.3,0-15.5,0c-1.3,0-1.3,1.9,0,1.9c5.2,0,10.3,0,15.5,0C27.4,19.6,27.4,17.7,26.1,17.7z"
				/>
			<path class="st0" d="M26.1,22.2c-5.2,0-10.3,0-15.5,0c-1.3,0-1.3,1.9,0,1.9c5.2,0,10.3,0,15.5,0C27.4,24.2,27.4,22.2,26.1,22.2z"
				/>
			<path class="st0" d="M25.8,26.6c-5.2,0-10.3,0-15.5,0c-1.3,0-1.3,1.9,0,1.9c5.2,0,10.3,0,15.5,0C27.1,28.5,27.1,26.6,25.8,26.6z"
				/>
			<path class="st0" d="M26.8,0.5H4.1v34.8h27.9V5.3L26.8,0.5z M29.5,32.9H6.5V2.8h19v3.7h4C29.5,6.5,29.5,32.9,29.5,32.9z"/>
		</g>
	</g>
</g>
<ellipse class="st1" cx="25.1" cy="24" rx="9.9" ry="11"/>
<g>
	<path class="st0" d="M25,12.7c-6.3,0-11.4,5.1-11.4,11.4S18.7,35.5,25,35.5c6.3,0,11.4-5.1,11.4-11.4C36.4,17.8,31.3,12.7,25,12.7z
		 M31.5,25.9h-4.9v4.9c0,0.8-0.7,1.5-1.5,1.5c-0.8,0-1.5-0.7-1.5-1.5v-4.9h-4.9c-0.8,0-1.5-0.7-1.5-1.5c0-0.8,0.7-1.5,1.5-1.5h4.9
		v-4.9c0-0.8,0.7-1.5,1.5-1.5c0.8,0,1.5,0.7,1.5,1.5v4.9h4.9c0.8,0,1.5,0.7,1.5,1.5C33,25.3,32.3,25.9,31.5,25.9z"/>
</g>
</svg>
