<?xml version="1.0" encoding="utf-8"?>
<!-- Generator: Adobe Illustrator 21.1.0, SVG Export Plug-In . SVG Version: 6.00 Build 0)  -->
<svg version="1.1" id="Capa_1" xmlns="http://www.w3.org/2000/svg" xmlns:xlink="http://www.w3.org/1999/xlink" x="0px" y="0px"
	 viewBox="0 0 36.9 36.9" style="enable-background:new 0 0 36.9 36.9;" xml:space="preserve">
<style type="text/css">
	.st0{fill:#D80027;}
</style>
<g>
	<g>
		<g>
			<path class="st0" d="M35,31.6L20.2,4c-0.4-0.7-1.1-1.1-1.9-1.1h0c-0.8,0-1.5,0.4-1.9,1.1L1.7,31.6c-0.4,0.7-0.3,1.5,0,2.1
				c0.4,0.6,1.1,1,1.8,1h29.6c0.7,0,1.4-0.4,1.8-1C35.3,33.1,35.4,32.3,35,31.6z M18.4,30.5c-1.2,0-2.1-1-2.1-2.1
				c0-1.2,1-2.1,2.1-2.1c1.2,0,2.1,1,2.1,2.1C20.5,29.6,19.5,30.5,18.4,30.5z M20.5,22c0,1.2-1,2.1-2.1,2.1c-1.2,0-2.1-1-2.1-2.1
				v-8.5c0-1.2,1-2.1,2.1-2.1c1.2,0,2.1,1,2.1,2.1V22z"/>
		</g>
	</g>
</g>
</svg>
