<?xml version="1.0" encoding="utf-8"?>
<!-- Generator: Adobe Illustrator 21.1.0, SVG Export Plug-In . SVG Version: 6.00 Build 0)  -->
<svg version="1.1" id="Layer_1" xmlns="http://www.w3.org/2000/svg" xmlns:xlink="http://www.w3.org/1999/xlink" x="0px" y="0px"
	 viewBox="0 0 35.6 34.9" style="enable-background:new 0 0 35.6 34.9;" xml:space="preserve">
<style type="text/css">
	.st0{fill:#FFFFFF;}
</style>
<g>
	<path class="st0" d="M26.4,19.1c-4.4,0-8,3.5-8,7.8s3.6,7.8,8,7.8s8-3.5,8-7.8S30.8,19.1,26.4,19.1z M30.7,29.5l-1.7,1.7l-2.6-2.6
		l-2.6,2.6l-1.7-1.7l2.6-2.6l-2.6-2.6l1.7-1.7l2.6,2.6l2.6-2.6l1.7,1.7l-2.6,2.6L30.7,29.5z"/>
	<polygon class="st0" points="19.6,1.4 19.6,6.9 25.2,6.9 	"/>
	<path class="st0" d="M6.4,27.4v-2.3h9.8c0.2-1.1,0.6-2.2,1.2-3.1h-11v-2.3h12.8c1.9-1.8,4.4-2.8,7.2-2.8V9.2h-9.2v-9H2.4v32.5H18
		c-1.1-1.5-1.8-3.3-1.9-5.3H6.4z M6.4,14.1h16v2.3h-16V14.1z"/>
</g>
</svg>
