<?xml version="1.0" encoding="utf-8"?>
<!-- Generator: Adobe Illustrator 21.1.0, SVG Export Plug-In . SVG Version: 6.00 Build 0)  -->
<svg version="1.1" id="Capa_1" xmlns="http://www.w3.org/2000/svg" xmlns:xlink="http://www.w3.org/1999/xlink" x="0px" y="0px"
	 viewBox="0 0 35.6 34.9" style="enable-background:new 0 0 35.6 34.9;" xml:space="preserve">
<style type="text/css">
	.st0{fill:#FFFFFF;}
</style>
<g id="XMLID_62_">
	<path id="XMLID_66_" class="st0" d="M20.7,31.5c-9.5,0-5.5,0-15.3,0V10.1h2.3V6.9H4.9c-1.4,0-2.6,1.1-2.6,2.5v22.7
		c0,1.4,1.1,2.5,2.6,2.5c3.5,0,10.1,0,16.4,0c1.4,0,2.6-1.1,2.6-2.5c0-0.2,0-0.4,0-0.7L20.7,31.5L20.7,31.5L20.7,31.5z"/>
	<path id="XMLID_63_" class="st0" d="M32.4,5l-4.4-4.3c-0.3-0.3-0.7-0.4-1.1-0.4H13.9c-1.4,0-2.6,1.1-2.6,2.5v22.7
		c0,1.4,1.1,2.5,2.6,2.5c3.5,0,10.1,0,16.4,0c1.4,0,2.6-1.1,2.6-2.5c0-14.6,0-4.5,0-19.5C32.9,5.7,32.7,5.3,32.4,5z M29.7,24.9
		c-9.5,0-5.5,0-15.3,0V3.5h10.6v2.8c0,1,0.8,1.8,1.8,1.8h2.8L29.7,24.9L29.7,24.9z"/>
</g>
</svg>
