<?xml version="1.0" encoding="utf-8"?>
<!-- Generator: Adobe Illustrator 21.1.0, SVG Export Plug-In . SVG Version: 6.00 Build 0)  -->
<svg version="1.1" id="Capa_1" xmlns="http://www.w3.org/2000/svg" xmlns:xlink="http://www.w3.org/1999/xlink" x="0px" y="0px"
	 viewBox="0 0 21 21" style="enable-background:new 0 0 21 21;" xml:space="preserve">
<style type="text/css">
	.st0{fill:#CA0079;}
</style>
<g>
	<path class="st0" d="M5.8,7.4L9,4.9H3C1.6,4.9,0.5,6,0.5,7.3v8.5c0,1.3,1.1,2.4,2.5,2.4h12.6c1.4,0,2.5-1.1,2.5-2.4v-4.4l-2.5,1.9
		v2.5H3V7.3L5.8,7.4L5.8,7.4z"/>
	<path class="st0" d="M14.4,4.9C9.9,5,5.5,8.7,5.5,13.5c2.1-2,4.6-3.8,8.9-3.7v2.4l6.3-4.8l-6.3-4.8C14.4,2.6,14.4,4.9,14.4,4.9z"/>
</g>
</svg>
