<?xml version="1.0" encoding="utf-8"?>
<!-- Generator: Adobe Illustrator 21.1.0, SVG Export Plug-In . SVG Version: 6.00 Build 0)  -->
<svg version="1.1" id="Capa_1" xmlns="http://www.w3.org/2000/svg" xmlns:xlink="http://www.w3.org/1999/xlink" x="0px" y="0px"
	 viewBox="0 0 36.6 35.7" style="enable-background:new 0 0 36.6 35.7;" xml:space="preserve">
<style type="text/css">
	.st0{fill:#FFFFFF;}
	.st1{fill:#CA0079;}
	.st2{font-family:'TwCenMT-CondensedExtraBold';}
	.st3{font-size:17px;}
</style>
<g>
	<g>
		<path class="st0" d="M21.7,24c2.2-1.1,3.9-2.5,5.2-4.3c1.3-1.8,1.9-3.8,1.9-5.9c0-2.1-0.6-4.1-1.9-5.9c-1.3-1.8-3-3.2-5.2-4.3
			C19.5,2.6,17.1,2,14.5,2c-2.6,0-5,0.5-7.2,1.6C5.2,4.7,3.4,6.1,2.1,7.9c-1.3,1.8-1.9,3.8-1.9,5.9c0,1.8,0.5,3.5,1.4,5.2
			c1,1.6,2.3,3,4,4.1c-0.1,0.4-0.3,0.7-0.4,1c-0.1,0.3-0.3,0.6-0.5,0.9c-0.2,0.3-0.3,0.5-0.5,0.7C4.1,25.8,4,26,3.7,26.3
			c-0.2,0.3-0.4,0.5-0.5,0.6c0,0,0,0-0.1,0.1c-0.1,0.1-0.1,0.1-0.1,0.1c0,0,0,0-0.1,0.1c0,0.1-0.1,0.1-0.1,0.1l-0.1,0.1
			c0,0,0,0.1,0,0.1c0,0,0,0.1,0,0.1c0,0.1,0,0.1,0,0.1c0,0.2,0.1,0.4,0.2,0.5c0.1,0.1,0.3,0.2,0.4,0.2h0.1c0.7-0.1,1.3-0.2,1.7-0.4
			c2.1-0.6,4-1.6,5.6-2.9c1.2,0.2,2.4,0.4,3.6,0.4C17.1,25.6,19.5,25.1,21.7,24z"/>
		<path class="st0" d="M35.2,24.9c1-1.6,1.4-3.3,1.4-5.2c0-1.9-0.5-3.7-1.5-5.3c-1-1.6-2.4-3-4.1-4.1c0.3,1.2,0.5,2.3,0.5,3.5
			c0,2.1-0.5,4-1.4,5.8c-0.9,1.8-2.2,3.5-3.9,4.9c-1.6,1.3-3.4,2.3-5.4,3c-2,0.7-4.1,1-6.3,1c-0.4,0-1,0-1.8-0.1c2.7,2,5.9,3,9.6,3
			c1.2,0,2.4-0.1,3.6-0.4c1.7,1.4,3.6,2.3,5.6,2.9c0.5,0.1,1.1,0.3,1.7,0.4c0.2,0,0.3,0,0.4-0.2c0.1-0.1,0.2-0.3,0.3-0.5
			c0-0.1,0-0.1,0-0.2c0,0,0-0.1,0-0.1c0-0.1,0-0.1,0-0.1l-0.1-0.1c0,0,0-0.1-0.1-0.1c0-0.1-0.1-0.1-0.1-0.1c0,0-0.1-0.1-0.1-0.1
			c0-0.1-0.1-0.1-0.1-0.1c-0.1-0.1-0.2-0.3-0.5-0.6c-0.2-0.3-0.4-0.5-0.5-0.7c-0.1-0.2-0.3-0.4-0.5-0.7c-0.2-0.3-0.4-0.6-0.5-0.9
			c-0.1-0.3-0.3-0.6-0.4-1C32.9,27.8,34.2,26.5,35.2,24.9z"/>
	</g>
</g>
<text transform="matrix(1 0 0 1 2.1457 18.7915)" class="st1 st2 st3">FAQ</text>
</svg>
