<?xml version="1.0" encoding="utf-8"?>
<!-- Generator: Adobe Illustrator 21.1.0, SVG Export Plug-In . SVG Version: 6.00 Build 0)  -->
<svg version="1.1" id="Capa_1" xmlns="http://www.w3.org/2000/svg" xmlns:xlink="http://www.w3.org/1999/xlink" x="0px" y="0px"
	 viewBox="0 0 37 37" style="enable-background:new 0 0 37 37;" xml:space="preserve">
<style type="text/css">
	.st0{fill:#FFFFFF;}
</style>
<g>
	<path class="st0" d="M30.5,4.5h-6.8c-0.3-2.3-2.5-4-5.2-4s-4.8,1.8-5.2,4h-7c-1.4,0-2.5,1-2.5,2.2v27.8c0,1.2,1.1,2.2,2.5,2.2h24.2
		c1.4,0,2.4-1,2.4-2.2V6.7C32.9,5.5,31.9,4.5,30.5,4.5z M10.8,6.3c0.5,2.2,2.6,3.8,5.2,3.8h5c2.6,0,4.7-1.6,5.2-3.8h2.4v26.3H8.4
		V6.3H10.8z M18.5,2.4c1.4,0,2.6,0.9,2.9,2.1h-5.9C15.9,3.3,17.1,2.4,18.5,2.4z"/>
	<rect x="11.6" y="13.7" class="st0" width="6.8" height="1.8"/>
	<polygon class="st0" points="25.5,13.3 24,12 22.1,13.9 21.2,13.3 19.9,14.7 22.3,16.4 	"/>
	<rect x="11.6" y="19.6" class="st0" width="6.8" height="1.8"/>
	<polygon class="st0" points="25.5,19.1 24,17.9 22.1,19.8 21.2,19.1 19.9,20.6 22.3,22.3 	"/>
	<rect x="11.6" y="25.4" class="st0" width="6.8" height="1.8"/>
	<polygon class="st0" points="25.5,25 24,23.7 22.1,25.6 21.2,25 19.9,26.4 22.3,28.1 	"/>
</g>
</svg>
