<?xml version="1.0" encoding="utf-8"?>
<!-- Generator: Adobe Illustrator 21.1.0, SVG Export Plug-In . SVG Version: 6.00 Build 0)  -->
<svg version="1.1" id="Capa_1" xmlns="http://www.w3.org/2000/svg" xmlns:xlink="http://www.w3.org/1999/xlink" x="0px" y="0px"
	 viewBox="0 0 36 36" style="enable-background:new 0 0 36 36;" xml:space="preserve">
<style type="text/css">
	.st0{fill:#FFFFFF;}
</style>
<g>
	<g>
		<g>
			<g>
				<polygon class="st0" points="0.3,10.1 0.3,30 35.6,30 35.6,10.1 17.9,22.4 				"/>
			</g>
		</g>
		<g>
			<g>
				<path class="st0" d="M17.9,20.1c-0.2,0-0.4-0.1-0.6-0.2L1.1,8.4C0.8,8.2,0.6,7.9,0.6,7.6V5.8c0-0.6,0.5-1,1-1h32.6
					c0.6,0,1,0.5,1,1v1.7c0,0.3-0.2,0.6-0.4,0.8L18.6,19.9C18.4,20.1,18.2,20.1,17.9,20.1z M2.7,7.1l15.2,10.8L33.2,7V6.9H2.7V7.1z"
					/>
			</g>
		</g>
	</g>
</g>
</svg>
