<?xml version="1.0" encoding="utf-8"?>
<!-- Generator: Adobe Illustrator 21.1.0, SVG Export Plug-In . SVG Version: 6.00 Build 0)  -->
<svg version="1.1" id="Capa_1" xmlns="http://www.w3.org/2000/svg" xmlns:xlink="http://www.w3.org/1999/xlink" x="0px" y="0px"
	 viewBox="0 0 36 36" style="enable-background:new 0 0 36 36;" xml:space="preserve">
<style type="text/css">
	.st0{fill:#FFFFFF;}
</style>
<g>
	<g>
		<g>
			<g>
				<path class="st0" d="M15.7,18.5c-0.2,0-0.4-0.1-0.5-0.2L1,8.2C0.8,8,0.6,7.8,0.6,7.5V5.9c0-0.5,0.4-0.9,0.9-0.9h28.4
					c0.5,0,0.9,0.4,0.9,0.9v1.5c0,0.3-0.1,0.5-0.4,0.7L16.2,18.3C16.1,18.4,15.9,18.5,15.7,18.5z M2.4,7l13.3,9.5L29,7V6.8H2.4V7z"
					/>
			</g>
		</g>
		<g>
			<g>
				<path class="st0" d="M30.7,15.1V9.7l-15,10.6L0.7,9.7v17.1h20c1.4,2.3,4,3.9,6.9,3.9c4.5,0,8.1-3.6,8.1-8.1
					C35.8,19.2,33.7,16.3,30.7,15.1z M27.7,28.4c-1.5,0-2.9-0.6-3.9-1.5c-1.1-1.1-1.9-2.6-1.9-4.2c0-3.2,2.6-5.8,5.8-5.8
					c1.1,0,2.2,0.3,3.1,0.9c1.6,1,2.7,2.8,2.7,4.9C33.5,25.8,30.9,28.4,27.7,28.4z"/>
			</g>
		</g>
		<g>
			<g>
				<polygon class="st0" points="28.9,18.5 26.4,18.5 26.4,21.3 23.5,21.3 23.5,23.7 26.4,23.7 26.4,26.6 28.9,26.6 28.9,23.7 
					31.7,23.7 31.7,21.3 28.9,21.3 				"/>
			</g>
		</g>
	</g>
</g>
</svg>
