<?xml version="1.0" encoding="utf-8"?>
<!-- Generator: Adobe Illustrator 21.1.0, SVG Export Plug-In . SVG Version: 6.00 Build 0)  -->
<svg version="1.1" id="Capa_1" xmlns="http://www.w3.org/2000/svg" xmlns:xlink="http://www.w3.org/1999/xlink" x="0px" y="0px"
	 viewBox="0 0 34.8 34.9" style="enable-background:new 0 0 34.8 34.9;" xml:space="preserve">
<style type="text/css">
	.st0{fill:#FFFFFF;}
</style>
<g>
	<path class="st0" d="M1.1,31c-0.3-0.1-0.6-0.5-0.6-0.9c0-15.7,14-19,17.3-19.6V3.2c0-0.4,0.1-0.7,0.4-0.8c0.2-0.2,0.5-0.1,0.7,0
		l15,13.4c0.2,0.2,0.3,0.5,0.3,0.8c0,0.3-0.1,0.6-0.3,0.8l-15,13.4c-0.2,0.2-0.5,0.2-0.7,0c-0.2-0.2-0.4-0.5-0.4-0.8v-7.8
		c-2.4,0-4.3,0.2-5.9,0.4c-7.8,1.2-9.9,7.4-10,7.7l0,0C1.8,30.8,1.5,31,1.3,31C1.2,31,1.2,31,1.1,31z"/>
</g>
</svg>
