<?xml version="1.0" encoding="utf-8"?>
<!-- Generator: Adobe Illustrator 21.1.0, SVG Export Plug-In . SVG Version: 6.00 Build 0)  -->
<svg version="1.1" id="Capa_1" xmlns="http://www.w3.org/2000/svg" xmlns:xlink="http://www.w3.org/1999/xlink" x="0px" y="0px"
	 viewBox="0 0 35.1 35.3" style="enable-background:new 0 0 35.1 35.3;" xml:space="preserve">
<style type="text/css">
	.st0{fill:#FFFFFF;}
</style>
<g>
	<path class="st0" d="M26.8,34.7c-4.4,0-8-3.4-8-7.7s3.6-7.7,8-7.7c3.4,0.1,6.3,2.3,7.2,5.5c0.1,0.4-0.1,0.8-0.5,0.9
		s-0.8-0.1-0.9-0.5l0,0c-0.8-2.5-3.1-4.3-5.8-4.4c-3.6,0-6.5,2.8-6.5,6.4s2.9,6.4,6.5,6.4c0.4,0,0.7,0.3,0.7,0.7
		C27.6,34.4,27.2,34.7,26.8,34.7z"/>
	<path class="st0" d="M34.1,26.2h-4.4c-0.4,0-0.7-0.3-0.7-0.7c0-0.4,0.3-0.7,0.7-0.7h3.6v-3.5c0-0.4,0.3-0.7,0.7-0.7
		s0.7,0.3,0.7,0.7v4.2C34.8,25.9,34.5,26.2,34.1,26.2z"/>
</g>
<path class="st0" d="M29.6,6.3c-0.4-0.7-1.2-0.9-1.9-0.7L24.1,7c-0.7-0.5-1.4-0.9-2.1-1.2l-0.5-3.7c-0.1-0.7-0.7-1.3-1.5-1.3h-6.4
	c-0.8,0-1.4,0.5-1.5,1.3l-0.5,3.7C10.7,6.1,10,6.5,9.3,7L5.7,5.6C5,5.3,4.2,5.6,3.8,6.2l-3.2,5.4c-0.4,0.7-0.2,1.5,0.4,2l3.1,2.4
	c-0.1,0.8-0.1,1.6,0,2.5L1,20.6c-0.6,0.5-0.7,1.3-0.4,1.9l3.2,5.4c0.4,0.6,1.2,0.9,1.9,0.6l3.6-1.4c0.7,0.5,1.4,0.9,2.1,1.2l0.5,3.7
	c0.1,0.7,0.7,1.3,1.5,1.3h5c0.4,0,0.7-0.3,0.7-0.7c0-0.1,0-0.3-0.1-0.4c-1.1-1.6-1.7-3.3-1.7-5.2c0-0.9,0.1-1.8,0.4-2.6
	c0.1-0.2,0-0.5-0.1-0.6c-0.1-0.2-0.4-0.3-0.6-0.3c-0.1,0-0.2,0-0.4,0c-3.6,0-6.6-2.8-6.6-6.4s2.9-6.4,6.5-6.4s6.6,2.8,6.6,6.4v0.1
	c0,0.1,0,0.2,0,0.2c0,0.4,0.3,0.7,0.7,0.8c0.1,0,0.2,0,0.2,0c1.4-0.4,2.9-0.5,4.4-0.2c0.2,0,0.4,0,0.6-0.2c0.2-0.1,0.3-0.3,0.3-0.5
	c0,0,0-0.1,0-0.2c0-0.4,0-0.8-0.1-1.2l3.1-2.4c0.6-0.5,0.7-1.3,0.4-1.9L29.6,6.3z"/>
<path class="st0" d="M18.5,33.3h-5c-0.8,0-1.4-0.6-1.5-1.3l-0.5-3.7c-0.8-0.3-1.5-0.8-2.1-1.2l-3.6,1.4c-0.7,0.3-1.5,0-1.9-0.7
	l-3.2-5.4c-0.4-0.6-0.2-1.5,0.4-1.9l3.1-2.4c-0.1-0.8-0.1-1.6,0-2.5l-3-2.4c-0.6-0.5-0.8-1.3-0.4-1.9L4,6.1c0.2-0.5,1-0.8,1.7-0.5
	L9.3,7c0.7-0.5,1.4-0.9,2.1-1.2L12,2.1c0.1-0.7,0.7-1.3,1.5-1.3h6.4c0.8,0,1.4,0.6,1.5,1.3l0.5,3.7C22.7,6.1,23.4,6.6,24,7l3.6-1.4
	c0.7-0.3,1.5,0,1.9,0.7l3.2,5.4c0.4,0.7,0.2,1.5-0.4,1.9l-3.1,2.4c0,0.4,0.1,0.8,0.1,1.2c0,0,0,0.1,0,0.2c0,0.2-0.1,0.4-0.3,0.5
	c-0.2,0.1-0.4,0.2-0.6,0.2c-1.5-0.3-3-0.2-4.4,0.2c-0.4,0.1-0.8-0.1-0.9-0.5c0-0.1,0-0.2,0-0.2c0-0.1,0-0.2,0-0.2
	c0.1-3.5-2.8-6.4-6.4-6.5c-3.6-0.1-6.6,2.7-6.7,6.3s2.8,6.4,6.4,6.5h0.1c0.2,0,0.3,0,0.4,0c0.4,0,0.7,0.3,0.8,0.7c0,0.1,0,0.2,0,0.2
	c-0.8,2.6-0.3,5.6,1.3,7.8c0.2,0.3,0.1,0.8-0.2,1C18.8,33.3,18.6,33.3,18.5,33.3z M9.4,25.6c0.2,0,0.3,0.1,0.4,0.1
	c0.8,0.6,1.6,1.1,2.5,1.5c0.2,0.1,0.4,0.3,0.4,0.6l0.6,4.1h3.8c-1.2-2.2-1.5-4.6-1-7.1c-4.4-0.3-7.7-4-7.4-8.2
	c0.3-4.3,4.1-7.6,8.5-7.3c4,0.3,7.2,3.3,7.4,7.3c1.1-0.2,2.2-0.3,3.2-0.2c0-0.2,0-0.5-0.1-0.8c0-0.3,0.1-0.5,0.3-0.7l3.4-2.5
	l-3.2-5.5l-4.1,1.5c-0.2,0.1-0.5,0.1-0.7-0.1c-0.8-0.6-1.6-1.1-2.5-1.5c-0.2-0.1-0.4-0.3-0.4-0.6L20,2.3h-6.5l-0.7,4.1
	c0,0.3-0.2,0.5-0.4,0.6c-0.9,0.4-1.8,0.9-2.5,1.5c-0.3,0.1-0.5,0.1-0.8,0l-4-1.6l-3.3,5.4L5.2,15c0.2,0.2,0.3,0.4,0.3,0.7
	c-0.1,0.5-0.1,1-0.1,1.5c0,0.5,0,1,0.1,1.5c0,0.3-0.1,0.5-0.3,0.7l-3.4,2.5L5,27.3l4.1-1.5C9.2,25.6,9.3,25.6,9.4,25.6z"/>
<path class="st0" d="M26.8,34.7c-4.4,0-8-3.4-8-7.7s3.6-7.7,8-7.7c3.4,0.1,6.3,2.3,7.2,5.5c0.1,0.4-0.1,0.8-0.5,0.9
	s-0.8-0.1-0.9-0.5l0,0c-0.8-2.5-3.1-4.3-5.8-4.4c-3.6,0-6.5,2.8-6.5,6.4s2.9,6.4,6.5,6.4c0.4,0,0.7,0.3,0.7,0.7
	C27.6,34.4,27.2,34.7,26.8,34.7z"/>
<path class="st0" d="M34.1,26.4h-4.4c-0.4,0-0.7-0.3-0.7-0.7c0-0.4,0.3-0.7,0.7-0.7h3.6v-3.6c0-0.4,0.3-0.7,0.7-0.7s0.7,0.3,0.7,0.7
	v4.3C34.8,26.1,34.5,26.4,34.1,26.4z"/>
</svg>
