<?xml version="1.0" encoding="utf-8"?>
<!-- Generator: Adobe Illustrator 21.1.0, SVG Export Plug-In . SVG Version: 6.00 Build 0)  -->
<svg version="1.1" id="Layer_1" xmlns="http://www.w3.org/2000/svg" xmlns:xlink="http://www.w3.org/1999/xlink" x="0px" y="0px"
	 viewBox="0 0 38 37.7" style="enable-background:new 0 0 38 37.7;" xml:space="preserve">
<style type="text/css">
	.st0{fill:#FFFFFF;}
</style>
<g>
	<g>
		<path class="st0" d="M31.5,32.5H10.2c0.6,1.4,0.8,3.2,0.5,4.4h20.8c1,0,1.8-1,1.8-2.2C33.2,33.5,32.4,32.5,31.5,32.5z"/>
		<path class="st0" d="M7.7,9.7C7.8,8.5,8,7.4,8,6.5l-1.3,0c0.2,1.4,0.2,2.5-0.1,3.3H7.7z"/>
		<path class="st0" d="M5.8,5L8,5C7.8,1.3,6.5,0.9,6.4,0.8c-2.1,0-2.9,2.8-3,4.3C3.4,6.5,3.4,9.1,4.9,9.7c0,0,0.9-0.8,0.3-3.8
			C5.1,5.6,5,5,5.8,5z"/>
		<path class="st0" d="M8.9,31.1h20c-0.2-4.1,0.7-8.3,1.5-12.3c1.2-5.7,2.4-11.2,0.7-16.6c-0.2-0.8-0.8-1.2-1.4-1.2H8.5
			c0.7,1.2,1,2.8,0.9,4.7c0.1,2.2-1.5,10-1.5,10c-1.2,6.2-2.7,13.3-1.4,18.7C7,36,7.8,36.9,8.9,36.9h0c0.1,0,0.2,0,0.3-0.3
			c0.5-1,0-3.4-0.8-4.3C8.1,31.9,8.1,31.1,8.9,31.1z M13.3,5.9h15c0.4,0,0.7,0.3,0.7,0.7c0,0.4-0.3,0.7-0.7,0.7h-15
			c-0.4,0-0.7-0.3-0.7-0.7C12.6,6.2,12.9,5.9,13.3,5.9z M12.8,12.3h15c0.4,0,0.7,0.3,0.7,0.7c0,0.4-0.3,0.7-0.7,0.7h-15
			c-0.4,0-0.7-0.3-0.7-0.7C12.1,12.6,12.4,12.3,12.8,12.3z M11.5,18.7h15c0.4,0,0.7,0.3,0.7,0.7c0,0.4-0.3,0.7-0.7,0.7h-15
			c-0.4,0-0.7-0.3-0.7-0.7C10.8,19,11.1,18.7,11.5,18.7z M10.9,25.1h9.4c0.4,0,0.7,0.3,0.7,0.7c0,0.4-0.3,0.7-0.7,0.7h-9.4
			c-0.4,0-0.7-0.3-0.7-0.7C10.2,25.4,10.5,25.1,10.9,25.1z"/>
	</g>
</g>
</svg>
