<?xml version="1.0" encoding="utf-8"?>
<!-- Generator: Adobe Illustrator 21.1.0, SVG Export Plug-In . SVG Version: 6.00 Build 0)  -->
<svg version="1.1" id="Ebene_1" xmlns="http://www.w3.org/2000/svg" xmlns:xlink="http://www.w3.org/1999/xlink" x="0px" y="0px"
	 viewBox="0 0 36.8 36.8" style="enable-background:new 0 0 36.8 36.8;" xml:space="preserve">
<style type="text/css">
	.st0{fill:#FFFFFF;}
	.st1{fill:#FFFFFF;stroke:#CA0079;stroke-miterlimit:10;}
</style>
<path class="st0" d="M36.1,33.4l-8.6-8.6c-0.4-0.4-1-0.6-1.6-0.6c1.6-2.1,2.7-4.9,2.7-7.8c0-6.8-5.6-12.3-12.4-12.3
	S3.8,9.6,3.8,16.4s5.6,12.3,12.4,12.3c2.9,0,5.8-1,7.8-2.9c0,0.6,0,1.2,0.6,1.6l8.6,8.6c0.4,0.4,1,0.6,1.4,0.6s1-0.2,1.4-0.6
	C36.9,35.5,36.9,34.3,36.1,33.4z M16.1,25.6c-5.1,0-9.3-4.1-9.3-9.2s4.1-9.2,9.3-9.2s9.3,4.1,9.3,9.2S21.3,25.6,16.1,25.6z"/>
<path class="st1" d="M9.4,0.5H4.9V5H0.5v4.5H5V14h4.5V9.5H14V5H9.4V0.5z"/>
</svg>
