<?xml version="1.0" encoding="utf-8"?>
<!-- Generator: Adobe Illustrator 21.1.0, SVG Export Plug-In . SVG Version: 6.00 Build 0)  -->
<svg version="1.1" id="Capa_1" xmlns="http://www.w3.org/2000/svg" xmlns:xlink="http://www.w3.org/1999/xlink" x="0px" y="0px"
	 viewBox="0 0 36.2 36.4" style="enable-background:new 0 0 36.2 36.4;" xml:space="preserve">
<style type="text/css">
	.st0{fill:#1B61EF;stroke:#000000;stroke-width:0.25;stroke-miterlimit:10;}
</style>
<g>
	<path class="st0" d="M18.1,21.9L7.3,18.6v3.2v2.3c0,2.5,4.8,4.6,10.8,4.6s10.8-2.1,10.8-4.6c0,0,0,0,0-0.1v-5.5L18.1,21.9z"/>
	<path class="st0" d="M0,14.8l3.9,1.4l0.3-0.7l1.4-0.1l0.2,0.2l-1.2,0.3l-0.2,0.5c0,0-2.7,5.7-2.3,8.5c0,0,1.7,1,3.4,0L6,17.2v-0.6
		L8.5,16l-0.2,0.4L6.4,17l0.9,0.3l10.8,3.3l10.8-3.3l7.3-2.6L18.1,7.9L0,14.8z"/>
</g>
</svg>
