<?xml version="1.0" encoding="utf-8"?>
<!-- Generator: Adobe Illustrator 21.1.0, SVG Export Plug-In . SVG Version: 6.00 Build 0)  -->
<svg version="1.1" id="Capa_1" xmlns="http://www.w3.org/2000/svg" xmlns:xlink="http://www.w3.org/1999/xlink" x="0px" y="0px"
	 viewBox="0 0 36.2 36.4" style="enable-background:new 0 0 36.2 36.4;" xml:space="preserve">
<style type="text/css">
	.st0{fill:#56C628;stroke:#000000;stroke-width:0.25;stroke-miterlimit:10;}
</style>
<g>
	<g>
		<path class="st0" d="M32.7,19.4c1,0.2,1.7,0.8,2.4,1.4c1-1.9,2.3-6.4-7.7-7c0,0,0.3-2.3,1.7-4.3c1.4-2,2.1-5.4-0.7-7.3
			s-3.2-1-3.5,0c-0.1,0.6-1.1,4.4-1.1,4.4s-6.3,6.2-7.3,8.1c0,0-0.8,1.1-2.1,1.1s-4.9,0-4.9,0S5.5,20.4,9,27c0,0,0.1,0.3,0.8,0.3
			s5.5,0,5.5,0s1.5,1.6,5.1,3.6c0,0,2.3,1,4.3,0.4c0,0,0.4,0.3,1.4,0.3c0.9,0,3.9,0.5,4.5-2.5c-0.4-0.3-0.9-0.6-1.4-0.7
			s-0.3-0.7,0.2-0.7c0.7,0.1,1.3,0.5,1.8,0.9c0.7-0.2,2.1-0.8,2.2-2.7c0,0,0,0-0.1,0c-0.5-0.5-1.1-0.9-1.8-1
			c-0.5-0.1-0.3-0.7,0.2-0.7c0.8,0.1,1.5,0.6,2.1,1.1c0.7-0.4,2.2-1.4,1.1-3.9c0,0,0.1-0.1,0.1-0.2c-0.7-0.6-1.3-1.1-2.3-1.3
			C32.1,20,32.3,19.3,32.7,19.4z"/>
		<path class="st0" d="M8.2,15H2c-4,6.8,0,13,0,13h6.4C3.4,21.5,8.2,15,8.2,15z"/>
	</g>
</g>
</svg>
