<?xml version="1.0" encoding="utf-8"?>
<!-- Generator: Adobe Illustrator 21.1.0, SVG Export Plug-In . SVG Version: 6.00 Build 0)  -->
<svg version="1.1" id="Capa_1" xmlns="http://www.w3.org/2000/svg" xmlns:xlink="http://www.w3.org/1999/xlink" x="0px" y="0px"
	 viewBox="0 0 36.3 36.3" style="enable-background:new 0 0 36.3 36.3;" xml:space="preserve">
<style type="text/css">
	.st0{fill:#ED3737;stroke:#000000;stroke-width:0.25;stroke-miterlimit:10;}
</style>
<g>
	<g>
		<path class="st0" d="M0.4,11h10.4V0.1c-1.1,0.2-2,0.7-2.7,1.4L1.7,8.2C1,8.9,0.6,9.8,0.4,11z"/>
		<path class="st0" d="M0.3,13.7v17c0,0.6,0.2,1,0.6,1.4s0.8,0.6,1.4,0.6h22.3c0.5,0,1-0.2,1.4-0.6c0.4-0.4,0.6-0.9,0.6-1.4V2.1
			c0-0.6-0.2-1-0.6-1.4s-0.8-0.6-1.4-0.6H13.5v11.6c0,0.6-0.2,1-0.6,1.4c-0.4,0.4-0.8,0.6-1.4,0.6C11.5,13.7,0.3,13.7,0.3,13.7z"/>
	</g>
</g>
<g>
	<path class="st0" d="M35.7,9.6c0,2.4-1.3,4.7-3.8,6.8c-0.8,0.6-1.6,1.2-2.3,1.8c-1.1,0.9-1.9,1.9-2.6,3c-0.3,0.5-0.7,1.8-1.1,4
		c-0.4,1.8-1.3,2.7-2.8,2.7c-1.7,0-2.5-1-2.5-3c0-1.6,0.5-3.3,1.4-5.1c1-1.7,2.2-3.1,3.6-4.2c1.8-1.3,3-2.2,3.5-2.8
		c0.9-1,1.3-2,1.3-3.2s-0.5-2.3-1.6-3.1s-2.5-1.2-4.2-1.2c-1.2,0-2.4,0.4-3.7,1.3s-2.2,1.3-2.7,1.3c-0.6,0-1.1-0.2-1.5-0.7
		c-0.4-0.4-0.6-1-0.6-1.6c0-1.1,0.8-2,2.5-2.9c1.8-0.9,3.9-1.4,6.4-1.4c3.3,0,5.9,0.8,7.8,2.3C34.7,5.1,35.7,7.1,35.7,9.6z
		 M27.4,33.3c0,0.9-0.3,1.7-1,2.3s-1.6,0.9-2.7,0.9s-2-0.3-2.7-0.9s-1-1.4-1-2.3c0-1,0.4-1.8,1.1-2.4s1.6-1,2.7-1s2,0.3,2.7,0.9
		S27.4,32.3,27.4,33.3z"/>
</g>
<text transform="matrix(1 0 0 1 42.8892 25.5234)" style="fill:#ED3737; font-family:'KristenITC-Regular'; font-size:32px;">?</text>
<text transform="matrix(1 0 0 1 42.8892 25.5234)" style="fill:none;stroke:#FFFFFF;stroke-width:0.75;stroke-miterlimit:10; font-family:'KristenITC-Regular'; font-size:32px;">?</text>
</svg>
