<?xml version="1.0" encoding="utf-8"?>
<!-- Generator: Adobe Illustrator 21.1.0, SVG Export Plug-In . SVG Version: 6.00 Build 0)  -->
<svg version="1.1" id="Capa_1" xmlns="http://www.w3.org/2000/svg" xmlns:xlink="http://www.w3.org/1999/xlink" x="0px" y="0px"
	 viewBox="0 0 36.2 36.3" style="enable-background:new 0 0 36.2 36.3;" xml:space="preserve">
<style type="text/css">
	.st0{fill:#FCB006;stroke:#000000;stroke-width:0.25;stroke-miterlimit:10;}
	.st1{fill:#D80027;}
</style>
<g>
	<g id="Layer_1_155_">
		<g>
			<path class="st0" d="M20.1,6.7H8c-0.9,0-1.6,0.7-1.6,1.6S7.1,9.9,8,9.9h12.1c0.9,0,1.6-0.7,1.6-1.6C21.7,7.4,21,6.7,20.1,6.7z"/>
			<path class="st0" d="M21.7,14.4c0-0.9-0.7-1.6-1.6-1.6H8c-0.9,0-1.6,0.7-1.6,1.6C6.4,15.3,7.1,16,8,16h12.1
				C21,16.1,21.7,15.3,21.7,14.4z"/>
			<path class="st0" d="M14.1,22.2c0.9,0,1.6-0.7,1.6-1.6S15,19,14.1,19H8c-0.9,0-1.6,0.7-1.6,1.6s0.7,1.6,1.6,1.6H14.1z"/>
			<path class="st0" d="M26.3,27.7l-1.7,1.1v4.1h-21V3.5h21V10l3.2-5.7V1.9c0-0.9-0.7-1.6-1.6-1.6H1.9C1,0.3,0.3,1,0.3,1.9v32.7
				c0,0.9,0.7,1.6,1.6,1.6h24.3c0.9,0,1.6-0.7,1.6-1.6v-9L27,26.9C26.8,27.3,26.6,27.5,26.3,27.7z"/>
			<path class="st0" d="M35.8,7.8c0-0.1-0.4-1.5-2.4-2.7C31.3,4,30,4.3,29.9,4.4c-0.2,0.1-0.4,0.2-0.5,0.4L19.3,22.4
				c-0.1,0.1-0.1,0.2-0.1,0.4l-0.4,6.4c0,0.3,0.1,0.6,0.4,0.8c0.3,0.2,0.6,0.1,0.9,0l5.3-3.5c0.1-0.1,0.2-0.2,0.3-0.3l10-17.8
				C35.8,8.2,35.9,8,35.8,7.8z M22.1,27.1c-0.3-0.2-0.6-0.4-0.9-0.6s-0.7-0.4-1-0.5l0.1-1.9c0.4,0.1,1,0.2,1.8,0.7s1.3,0.9,1.5,1.3
				L22.1,27.1z"/>
			<path class="st0" d="M11.6,29.7c0.1,0.3,0.4,0.4,0.7,0.5c0.2,0.1,0.5-0.1,0.7-0.2c1.2-0.6,2.9,0.1,4.2,0.1c0.8,0,0.8-1.2,0-1.2
				c-1.5,0-2.8-0.4-4.4-0.1c0-0.1,0-0.2-0.1-0.4c-0.3-0.5-0.6-0.6-1-0.6c0-0.1,0-0.1-0.1-0.2c-0.1-0.2-0.2-0.2-0.4-0.3
				c0.4-0.8,0.7-1.5,0.4-2.2c-0.1-0.2-0.3-0.3-0.5-0.3c-0.8,0-1.5,0.8-2,1.3c-1.3,1.3-2.5,2.8-3.6,4.2c-0.5,0.6,0.6,1.2,1,0.6
				c1-1.3,2-2.5,3.1-3.7c-0.3,0.4-0.6,0.9-0.9,1.3c-0.4,0.7,0.6,1.2,1,0.6c0.1-0.2,0.2-0.3,0.4-0.4c0,0.1-0.1,0.1-0.1,0.2l0,0
				c0,0,0,0.1-0.1,0.1c-0.3,0.7,0.7,1,1.1,0.5c0.1-0.1,0.2-0.3,0.3-0.4C11.6,29.5,11.6,29.6,11.6,29.7z"/>
		</g>
	</g>
</g>
<g>
	<g id="cancel">
		<path class="st1" d="M-21.9,39.3c-5.6,0-10.1,4.3-10.1,9.5s4.5,9.5,10.1,9.5s10.1-4.3,10.1-9.5S-16.4,39.3-21.9,39.3z M-16.9,52.2
			l-1.4,1.3l-3.6-3.4l-3.6,3.4l-1.4-1.3l3.6-3.4l-3.7-3.4l1.4-1.3l3.6,3.4l3.6-3.4l1.4,1.3l-3.5,3.4L-16.9,52.2z"/>
	</g>
</g>
<rect x="-88.5" y="10.3" class="st1" width="24.5" height="24.5"/>
</svg>
